{
	"asset":{
		"generator":"Khronos glTF Blender I/O v4.2.69",
		"version":"2.0"
	},
	"scene":0,
	"scenes":[
		{
			"name":"Scene",
			"nodes":[
				0,
				1,
				2
			]
		}
	],
	"nodes":[
		{
			"mesh":0,
			"name":"Sphere",
			"scale":[
				2.536559581756592,
				2.536559581756592,
				2.536559581756592
			],
			"translation":[
				-10.869422912597656,
				0,
				0
			]
		},
		{
			"mesh":1,
			"name":"Cube",
			"scale":[
				1.3990371227264404,
				1.3990371227264404,
				1.3990371227264404
			],
			"translation":[
				0,
				0,
				-10.384446144104004
			]
		},
		{
			"mesh":2,
			"name":"Torus",
			"scale":[
				2.2408928871154785,
				2.2408928871154785,
				2.2408928871154785
			]
		}
	],
	"materials":[
		{
			"doubleSided":true,
			"name":"Material.001",
			"pbrMetallicRoughness":{
				"baseColorFactor":[
					0.8002997636795044,
					0.013938144780695438,
					0,
					1
				],
				"metallicFactor":0,
				"roughnessFactor":0.5
			}
		}
	],
	"meshes":[
		{
			"name":"Mesh",
			"primitives":[
				{
					"attributes":{
						"POSITION":0,
						"NORMAL":1,
						"TEXCOORD_0":2,
						"TANGENT":3
					},
					"indices":4
				}
			]
		},
		{
			"name":"Cube.001",
			"primitives":[
				{
					"attributes":{
						"POSITION":5,
						"NORMAL":6,
						"TEXCOORD_0":7,
						"TANGENT":8
					},
					"indices":9,
					"material":0
				}
			]
		},
		{
			"name":"Torus",
			"primitives":[
				{
					"attributes":{
						"POSITION":10,
						"NORMAL":11,
						"TEXCOORD_0":12,
						"TANGENT":13
					},
					"indices":14
				}
			]
		}
	],
	"accessors":[
		{
			"bufferView":0,
			"componentType":5126,
			"count":31744,
			"max":[
				0.9872310161590576,
				0.9975767135620117,
				0.9872307181358337
			],
			"min":[
				-0.9872305393218994,
				-0.9975767135620117,
				-0.9872310161590576
			],
			"type":"VEC3"
		},
		{
			"bufferView":1,
			"componentType":5126,
			"count":31744,
			"type":"VEC3"
		},
		{
			"bufferView":2,
			"componentType":5126,
			"count":31744,
			"type":"VEC2"
		},
		{
			"bufferView":3,
			"componentType":5126,
			"count":31744,
			"type":"VEC4"
		},
		{
			"bufferView":4,
			"componentType":5123,
			"count":47616,
			"type":"SCALAR"
		},
		{
			"bufferView":5,
			"componentType":5126,
			"count":24,
			"max":[
				1,
				1,
				1
			],
			"min":[
				-1,
				-1,
				-1
			],
			"type":"VEC3"
		},
		{
			"bufferView":6,
			"componentType":5126,
			"count":24,
			"type":"VEC3"
		},
		{
			"bufferView":7,
			"componentType":5126,
			"count":24,
			"type":"VEC2"
		},
		{
			"bufferView":8,
			"componentType":5126,
			"count":24,
			"type":"VEC4"
		},
		{
			"bufferView":9,
			"componentType":5123,
			"count":36,
			"type":"SCALAR"
		},
		{
			"bufferView":10,
			"componentType":5126,
			"count":2304,
			"max":[
				1.25,
				0.25,
				1.25
			],
			"min":[
				-1.25,
				-0.25,
				-1.25
			],
			"type":"VEC3"
		},
		{
			"bufferView":11,
			"componentType":5126,
			"count":2304,
			"type":"VEC3"
		},
		{
			"bufferView":12,
			"componentType":5126,
			"count":2304,
			"type":"VEC2"
		},
		{
			"bufferView":13,
			"componentType":5126,
			"count":2304,
			"type":"VEC4"
		},
		{
			"bufferView":14,
			"componentType":5123,
			"count":3456,
			"type":"SCALAR"
		}
	],
	"bufferViews":[
		{
			"buffer":0,
			"byteLength":380928,
			"byteOffset":0,
			"target":34962
		},
		{
			"buffer":0,
			"byteLength":380928,
			"byteOffset":380928,
			"target":34962
		},
		{
			"buffer":0,
			"byteLength":253952,
			"byteOffset":761856,
			"target":34962
		},
		{
			"buffer":0,
			"byteLength":507904,
			"byteOffset":1015808,
			"target":34962
		},
		{
			"buffer":0,
			"byteLength":95232,
			"byteOffset":1523712,
			"target":34963
		},
		{
			"buffer":0,
			"byteLength":288,
			"byteOffset":1618944,
			"target":34962
		},
		{
			"buffer":0,
			"byteLength":288,
			"byteOffset":1619232,
			"target":34962
		},
		{
			"buffer":0,
			"byteLength":192,
			"byteOffset":1619520,
			"target":34962
		},
		{
			"buffer":0,
			"byteLength":384,
			"byteOffset":1619712,
			"target":34962
		},
		{
			"buffer":0,
			"byteLength":72,
			"byteOffset":1620096,
			"target":34963
		},
		{
			"buffer":0,
			"byteLength":27648,
			"byteOffset":1620168,
			"target":34962
		},
		{
			"buffer":0,
			"byteLength":27648,
			"byteOffset":1647816,
			"target":34962
		},
		{
			"buffer":0,
			"byteLength":18432,
			"byteOffset":1675464,
			"target":34962
		},
		{
			"buffer":0,
			"byteLength":36864,
			"byteOffset":1693896,
			"target":34962
		},
		{
			"buffer":0,
			"byteLength":6912,
			"byteOffset":1730760,
			"target":34963
		}
	],
	"buffers":[
		{
			"byteLength":1737672,
			"uri":"Cone.bin"
		}
	]
}
